Coordinates
version=1
nRows=13
nColumns=36
inDegrees=yes

Units are S.I. units (second, meters, Newtons, ...)
If the header above contains a line with 'inDegrees', this indicates whether rotational values are in degrees (yes) or radians (no).

endheader
time	pelvis_tilt	pelvis_list	pelvis_rotation	pelvis_tx	pelvis_ty	pelvis_tz	hip_flexion_r	hip_adduction_r	hip_rotation_r	knee_angle_r	knee_angle_r_beta	ankle_angle_r	subtalar_angle_r	mtp_angle_r	hip_flexion_l	hip_adduction_l	hip_rotation_l	knee_angle_l	knee_angle_l_beta	ankle_angle_l	subtalar_angle_l	mtp_angle_l	lumbar_extension	lumbar_bending	lumbar_rotation	arm_flex_r	arm_add_r	arm_rot_r	elbow_flex_r	pro_sup_r	arm_flex_l	arm_add_l	arm_rot_l	elbow_flex_l	pro_sup_l
     14.98333330	      8.68926073	     -2.83727393	      0.81854864	      0.45210374	      1.04219178	      0.78972644	    -12.19859461	      5.98552821	      3.91300992	     10.42745834	      0.18199348	     10.51802052	     -7.37244657	     -7.49999987	     12.92703272	     -5.06250546	      0.40674157	     28.13946068	      0.49112624	      4.62823804	    -12.86088602	     -7.49999987	    -20.59204676	      3.24531834	      5.31440252	      1.87436499	    -19.19633661	      2.91661311	     46.92666827	     79.43149888	      8.17520556	    -10.43922469	     24.57207811	     17.95112882	     86.64391165
     15.00000000	      8.56084851	     -2.82924617	      0.76285516	      0.45045844	      1.04061252	      0.78875330	    -12.58424319	      5.84915264	      3.77722780	     10.47083195	      0.18275049	     11.30595151	     -7.28778723	     -7.49999987	     12.98942523	     -5.10041473	      0.17965206	     24.38234983	      0.42555228	      4.66274135	    -11.51144209	     -7.49999987	    -20.42379898	      3.09315236	      5.70839906	      1.53424944	    -19.33593790	      2.77225293	     47.48394917	     79.45044463	      8.48172653	    -10.26650089	     24.43997683	     17.93084919	     86.95058811
     15.01666670	      8.37437607	     -2.80994788	      0.62901734	      0.44799513	      1.03984166	      0.78732483	    -13.03289653	      5.65742630	      3.52688494	     10.26177352	      0.17910174	     12.44710367	     -6.57847319	     -7.49999987	     13.15980002	     -5.08129686	     -0.02393588	     20.87796355	      0.36438920	      4.88622083	     -9.81400524	     -7.49999987	    -20.22692274	      2.96803601	      5.92840882	      1.48743808	    -19.43758973	      2.78764289	     47.65460459	     79.05072514	      8.59635316	    -10.10487984	     24.24579062	     18.04191642	     86.65880955
     15.03333330	      8.18274247	     -2.77073620	      0.38973254	      0.44574927	      1.03948979	      0.78614224	    -13.58154485	      5.44846322	      3.65396202	      9.78807541	      0.17083414	     13.46645957	     -6.29753332	     -7.49999987	     13.36738180	     -5.00591491	     -0.05739712	     17.74916765	      0.30978142	      4.91705589	     -8.48376647	     -7.49999987	    -20.06730682	      2.79125430	      6.19265016	      1.50644544	    -19.50106095	      2.94676938	     47.78937293	     78.25423804	      8.58609417	    -10.09919472	     23.97182647	     18.78715517	     85.71666645
     15.05000000	      7.82475979	     -2.76905682	      0.17214862	      0.44363558	      1.03893760	      0.78493894	    -13.89532898	      5.24854675	      3.50189440	      9.38755578	      0.16384376	     14.62562191	     -5.55456236	     -7.49999987	     13.85049757	     -5.01927760	     -0.38218073	     15.23916423	      0.26597359	      5.41605481	     -6.35044540	     -7.49999987	    -19.55986811	      2.64928629	      6.55826929	      1.55657814	    -19.61064842	      3.35111635	     47.39726302	     79.62280030	      9.04724585	     -9.82475475	     23.83456882	     18.21596938	     88.01713026
     15.06666670	      7.43706186	     -2.77155355	     -0.14451674	      0.44068224	      1.03825689	      0.78348316	    -14.03275212	      5.01656379	      3.51867848	      9.25540936	      0.16153737	     15.76233636	     -4.96390656	     -7.49999987	     14.34824611	     -5.01814439	     -0.68063379	     13.08740014	      0.22841822	      5.61583989	     -4.80896502	     -7.49999987	    -19.01937898	      2.51071797	      6.75640139	      2.00641776	    -19.72058074	      4.55462162	     46.64087387	     79.14106821	      9.30220400	     -9.58796842	     23.66710096	     17.77031522	     87.52775410
     15.08333330	      7.02166221	     -2.77803795	     -0.34169376	      0.43725264	      1.03757993	      0.78154805	    -14.09706630	      4.80823681	      3.49383378	      9.23035992	      0.16110017	     16.63775142	     -4.71656466	     -7.49999987	     14.93212480	     -4.95755157	     -0.73139353	     11.28293602	      0.19692438	      5.60650390	     -3.77090806	     -7.49999987	    -18.61866287	      2.44206747	      7.00638931	      2.06010561	    -19.65569323	      4.77549299	     46.52998455	     79.21271671	      9.43343067	     -9.54020786	     23.60559943	     18.02598946	     87.58328123
     15.10000000	      6.64297016	     -2.82847721	     -0.55937857	      0.43493183	      1.03672769	      0.77952357	    -14.11240755	      4.59820495	      3.19140761	      9.42989902	      0.16458279	     17.76822364	     -3.83212330	     -7.49999987	     15.55773524	     -4.97409667	     -1.06858248	     10.04417809	      0.17530398	      5.94206332	     -2.27329882	     -7.49999987	    -18.18906408	      2.41084426	      7.24731298	      2.39672553	    -19.64627251	      5.55966709	     45.82066608	     79.46571670	      9.62011266	     -9.46144089	     23.47818673	     18.08756388	     87.84792624
     15.11666670	      6.30618095	     -2.82640889	     -0.79513918	      0.43561021	      1.03563865	      0.77765071	    -14.10732259	      4.34259305	      3.21712325	      9.79640844	      0.17097958	     18.43300193	     -3.77971506	     -7.49999987	     16.07089498	     -4.91350768	     -1.16168399	      9.28114072	      0.16198646	      5.83823025	     -1.67089206	     -7.49999987	    -17.84485710	      2.29348272	      7.61938358	      2.36695444	    -19.56166617	      6.05951979	     45.56199779	     78.36492093	      9.71922143	     -9.50219187	     23.38812314	     18.60367893	     86.50347204
     15.13333330	      5.93520954	     -2.80523589	     -0.97395863	      0.43856613	      1.03516092	      0.77606361	    -13.79081916	      4.01272383	      2.73647950	     10.71795935	      0.18706368	     19.38553495	     -3.05020356	     -7.49999987	     16.62739395	     -4.84420234	     -1.35067415	      9.25428731	      0.16151778	      5.71722048	     -1.18437683	     -7.49999987	    -17.25845209	      2.21460446	      7.35805354	      3.14551237	    -19.30687594	      7.50532389	     44.13503921	     77.81470949	      9.77437245	     -9.57779990	     23.99231538	     18.02970216	     86.01048624
     15.15000000	      5.68232386	     -2.75832947	     -1.28354572	      0.44074425	      1.03498235	      0.77528306	    -13.37715441	      3.64428634	      2.70172586	     12.04264650	      0.21018383	     19.86168796	     -3.22935283	     -7.49999987	     16.91841876	     -4.81074429	     -1.59440618	      9.63562640	      0.16817341	      5.21049572	     -1.12986825	     -7.49999987	    -16.97425143	      1.98733009	      7.69432846	      3.09330525	    -19.12354078	      7.92278178	     43.80593392	     77.37590018	      9.67733775	     -9.82484546	     24.02129915	     18.83296373	     85.35934074
     15.16666670	      5.11104051	     -2.79873961	     -1.57458555	      0.44027252	      1.03327365	      0.77450462	    -12.38530599	      3.36499144	      2.48056191	     13.75044823	      0.23999060	     20.28083197	     -3.38973385	     -7.49999987	     17.63946754	     -4.90798947	     -1.86473383	     10.55149918	      0.18415840	      4.64000065	     -1.07781356	     -7.49999987	    -16.20884495	      1.86107433	      7.75322015	      3.43795989	    -18.79840774	      8.66986500	     42.71626347	     77.89208672	      9.67868826	    -10.03439762	     24.33604350	     18.72378704	     86.01181399
     15.18333330	      5.03775492	     -2.76942382	     -1.91086286	      0.43830694	      1.03116300	      0.77309077	    -11.91264677	      2.99803305	      2.34257178	     15.34364369	      0.26779710	     20.39825793	     -3.71256442	     -7.49999987	     17.70414544	     -4.92739332	     -2.15359055	     11.41431749	      0.19921742	      3.85376257	     -1.06435309	     -7.49999987	    -16.24959464	      1.58521118	      7.85951814	      3.59088600	    -18.52544761	      8.80440204	     42.59593496	     77.97809804	      9.91376358	    -10.28457127	     24.32991807	     18.84729028	     86.10516982
